solid OpenSCAD_Model
  facet normal 0.5000001 -0.8660253 0
    outer loop
      vertex 0 -4.95 5
      vertex 4.286825 -2.4749994 29
      vertex 0 -4.95 29
    endloop
  endfacet
  facet normal 0.5000001 -0.8660253 0
    outer loop
      vertex 4.286825 -2.4749994 29
      vertex 0 -4.95 5
      vertex 4.286825 -2.4749994 5
    endloop
  endfacet
  facet normal -0.5000001 -0.8660253 0
    outer loop
      vertex -4.286825 -2.4749994 5
      vertex 0 -4.95 29
      vertex -4.286825 -2.4749994 29
    endloop
  endfacet
  facet normal -0.5000001 -0.8660253 0
    outer loop
      vertex 0 -4.95 29
      vertex -4.286825 -2.4749994 5
      vertex 0 -4.95 5
    endloop
  endfacet
  facet normal -0.5000001 0.8660253 0
    outer loop
      vertex 0 4.95 5
      vertex -4.286825 2.4749994 29
      vertex 0 4.95 29
    endloop
  endfacet
  facet normal -0.5000001 0.8660253 0
    outer loop
      vertex -4.286825 2.4749994 29
      vertex 0 4.95 5
      vertex -4.286825 2.4749994 5
    endloop
  endfacet
  facet normal -1 0 0
    outer loop
      vertex -4.286825 -2.4749994 5
      vertex -4.286825 2.4749994 29
      vertex -4.286825 2.4749994 5
    endloop
  endfacet
  facet normal -1 0 0
    outer loop
      vertex -4.286825 2.4749994 29
      vertex -4.286825 -2.4749994 5
      vertex -4.286825 -2.4749994 29
    endloop
  endfacet
  facet normal 0.5000001 0.8660253 0
    outer loop
      vertex 4.286825 2.4749994 5
      vertex 0 4.95 29
      vertex 4.286825 2.4749994 29
    endloop
  endfacet
  facet normal 0.5000001 0.8660253 0
    outer loop
      vertex 0 4.95 29
      vertex 4.286825 2.4749994 5
      vertex 0 4.95 5
    endloop
  endfacet
  facet normal 0 0 1
    outer loop
      vertex 5.1961517 3 5
      vertex 4.286825 2.4749994 5
      vertex 5.1961517 -3 5
    endloop
  endfacet
  facet normal 0 0 1
    outer loop
      vertex 0 6 5
      vertex 4.286825 2.4749994 5
      vertex 5.1961517 3 5
    endloop
  endfacet
  facet normal 0 0 1
    outer loop
      vertex 0 6 5
      vertex 0 4.95 5
      vertex 4.286825 2.4749994 5
    endloop
  endfacet
  facet normal 0 0 1
    outer loop
      vertex 0 6 5
      vertex -4.286825 2.4749994 5
      vertex 0 4.95 5
    endloop
  endfacet
  facet normal 0 0 1
    outer loop
      vertex -4.286825 2.4749994 5
      vertex -5.1961517 3 5
      vertex -4.286825 -2.4749994 5
    endloop
  endfacet
  facet normal 0 0 1
    outer loop
      vertex -5.1961517 3 5
      vertex -4.286825 2.4749994 5
      vertex 0 6 5
    endloop
  endfacet
  facet normal 0 0 1
    outer loop
      vertex 4.286825 -2.4749994 5
      vertex 5.1961517 -3 5
      vertex 4.286825 2.4749994 5
    endloop
  endfacet
  facet normal 0 0 1
    outer loop
      vertex 0 -4.95 5
      vertex 5.1961517 -3 5
      vertex 4.286825 -2.4749994 5
    endloop
  endfacet
  facet normal 0 0 1
    outer loop
      vertex 0 -4.95 5
      vertex 0 -6 5
      vertex 5.1961517 -3 5
    endloop
  endfacet
  facet normal 0 0 1
    outer loop
      vertex -4.286825 -2.4749994 5
      vertex 0 -6 5
      vertex 0 -4.95 5
    endloop
  endfacet
  facet normal 0 0 1
    outer loop
      vertex -4.286825 -2.4749994 5
      vertex -5.1961517 -3 5
      vertex 0 -6 5
    endloop
  endfacet
  facet normal 0 0 1
    outer loop
      vertex -5.1961517 -3 5
      vertex -4.286825 -2.4749994 5
      vertex -5.1961517 3 5
    endloop
  endfacet
  facet normal 0 0 1
    outer loop
      vertex 0 4.95 29
      vertex 4.286825 -2.4749994 29
      vertex 4.286825 2.4749994 29
    endloop
  endfacet
  facet normal 0 0 1
    outer loop
      vertex 0 4.95 29
      vertex 0 -4.95 29
      vertex 4.286825 -2.4749994 29
    endloop
  endfacet
  facet normal 0 0 1
    outer loop
      vertex -4.286825 2.4749994 29
      vertex 0 -4.95 29
      vertex 0 4.95 29
    endloop
  endfacet
  facet normal 0 0 1
    outer loop
      vertex 0 -4.95 29
      vertex -4.286825 2.4749994 29
      vertex -4.286825 -2.4749994 29
    endloop
  endfacet
  facet normal 1 0 0
    outer loop
      vertex 4.286825 -2.4749994 29
      vertex 4.286825 2.4749994 5
      vertex 4.286825 2.4749994 29
    endloop
  endfacet
  facet normal 1 0 0
    outer loop
      vertex 4.286825 2.4749994 5
      vertex 4.286825 -2.4749994 29
      vertex 4.286825 -2.4749994 5
    endloop
  endfacet
  facet normal 0.50000006 -0.8660254 0
    outer loop
      vertex 0 -6 0
      vertex 5.1961517 -3 5
      vertex 0 -6 5
    endloop
  endfacet
  facet normal 0.50000006 -0.8660254 0
    outer loop
      vertex 5.1961517 -3 5
      vertex 0 -6 0
      vertex 5.1961517 -3 0
    endloop
  endfacet
  facet normal -0.50000006 -0.8660254 0
    outer loop
      vertex -5.1961517 -3 0
      vertex 0 -6 5
      vertex -5.1961517 -3 5
    endloop
  endfacet
  facet normal -0.50000006 -0.8660254 0
    outer loop
      vertex 0 -6 5
      vertex -5.1961517 -3 0
      vertex 0 -6 0
    endloop
  endfacet
  facet normal -0.50000006 0.8660254 0
    outer loop
      vertex 0 6 0
      vertex -5.1961517 3 5
      vertex 0 6 5
    endloop
  endfacet
  facet normal -0.50000006 0.8660254 0
    outer loop
      vertex -5.1961517 3 5
      vertex 0 6 0
      vertex -5.1961517 3 0
    endloop
  endfacet
  facet normal -1 0 0
    outer loop
      vertex -5.1961517 -3 0
      vertex -5.1961517 3 5
      vertex -5.1961517 3 0
    endloop
  endfacet
  facet normal -1 0 0
    outer loop
      vertex -5.1961517 3 5
      vertex -5.1961517 -3 0
      vertex -5.1961517 -3 5
    endloop
  endfacet
  facet normal 0.50000006 0.8660254 0
    outer loop
      vertex 5.1961517 3 0
      vertex 0 6 5
      vertex 5.1961517 3 5
    endloop
  endfacet
  facet normal 0.50000006 0.8660254 0
    outer loop
      vertex 0 6 5
      vertex 5.1961517 3 0
      vertex 0 6 0
    endloop
  endfacet
  facet normal 0 0 -1
    outer loop
      vertex 0 -6 0
      vertex 5.1961517 3 0
      vertex 5.1961517 -3 0
    endloop
  endfacet
  facet normal 0 0 -1
    outer loop
      vertex 0 -6 0
      vertex 0 6 0
      vertex 5.1961517 3 0
    endloop
  endfacet
  facet normal 0 0 -1
    outer loop
      vertex -5.1961517 -3 0
      vertex 0 6 0
      vertex 0 -6 0
    endloop
  endfacet
  facet normal 0 0 -1
    outer loop
      vertex 0 6 0
      vertex -5.1961517 -3 0
      vertex -5.1961517 3 0
    endloop
  endfacet
  facet normal 1 0 0
    outer loop
      vertex 5.1961517 -3 5
      vertex 5.1961517 3 0
      vertex 5.1961517 3 5
    endloop
  endfacet
  facet normal 1 0 0
    outer loop
      vertex 5.1961517 3 0
      vertex 5.1961517 -3 5
      vertex 5.1961517 -3 0
    endloop
  endfacet
endsolid OpenSCAD_Model
